<svg id="Layer_1" data-name="Layer 1" xmlns="http://www.w3.org/2000/svg" viewBox="0 0 171.23 34.77"><defs><style>.cls-1{fill:#009fe3;fill-rule:evenodd;}.cls-2{fill:#1b272c;}</style></defs><path class="cls-1" d="M81.22,13.49a5.94,5.94,0,0,1,1.94,4.6V28H78.77V25.14l-.93,1a7.2,7.2,0,0,1-5.1,1.95,6.9,6.9,0,0,1-5.21-1.95,6.53,6.53,0,0,1-2-4.8V18.09a5.91,5.91,0,0,1,2-4.6C69,12,71.61,11.35,74.37,11.35s5.42.61,6.84,2.14ZM33.91,28.12A7,7,0,0,0,39,26.17l1-1V28a3.39,3.39,0,0,1-1,2.36,5.16,5.16,0,0,1-3.48,1.12H32.28v3.17c1.12.1,2.14.1,3.26.1,2.66,0,5.43-.61,7-2.05A6.33,6.33,0,0,0,44.44,28V18.11a6.29,6.29,0,0,0-1.94-4.6c-1.53-1.54-4.09-2.15-7-2.15-2.65,0-5.3.61-6.83,2.15a6.33,6.33,0,0,0-1.95,4.6v3.26a6.65,6.65,0,0,0,1.95,4.7A7.36,7.36,0,0,0,33.91,28.12ZM40,19.74,37,23a3.75,3.75,0,0,1-3.07,1.63c-1.94,0-2.75-1.85-2.75-3.27V18.11a3.13,3.13,0,0,1,1-2.36,4.64,4.64,0,0,1,3.38-1,4.91,4.91,0,0,1,3.48,1,3.53,3.53,0,0,1,1,2.36v1.63Zm6.54-8.29V28h4.29V11.45Zm4.3-2.76V4.91H46.6V8.69ZM20.33,11.45V28h4.29V11.45Zm4.29-2.76V4.91H20.33V8.69ZM85.41,4.91V28h4.4V4.91ZM61,24.85a3,3,0,0,1-3.17-3.26V14.84h6.64V11.46H57.82V4.91h-4.4V21.37a6.33,6.33,0,0,0,1.95,4.8,6.57,6.57,0,0,0,5.11,1.95,16.81,16.81,0,0,0,4-.41v-3c-1.22,0-2.35.1-3.47.1ZM16.66,4.91H13.28v6.55H6.64a6.55,6.55,0,0,0-4.7,2C.1,15.35,0,17.4,0,19.74,0,24.34,1.94,28,7.15,28c2.75,0,4.29-1,6.13-2.87V28h4.4V4.91ZM7.15,24.64c-1.84,0-2.65-1.53-2.65-3.27V18.11a3.44,3.44,0,0,1,.92-2.36,3.25,3.25,0,0,1,2.36-.92H13.3v4.91l-3,3.48a3.74,3.74,0,0,1-3.16,1.43Zm71.62-6.55a3.44,3.44,0,0,0-.93-2.35,5.91,5.91,0,0,0-7,0A3.41,3.41,0,0,0,70,18.09v3.27c0,1.85,1,3.27,2.75,3.27a4,4,0,0,0,2.87-1.34l3.16-3.58V18.08Z"/><path class="cls-2" d="M122.6,28.12a7.24,7.24,0,0,0,5.11-1.95l.92-1V28a3.3,3.3,0,0,1-.92,2.36,5.44,5.44,0,0,1-3.48,1.12H121v3.17c1,.1,2.14.1,3.26.1,2.65,0,5.42-.61,7-2.05a6.79,6.79,0,0,0,1.95-4.7V20.25l3.77-4a3.52,3.52,0,0,1,2.75-1.43c1.85,0,2.76,1.84,2.76,3.26V28h4.49V18.09c0-3.89-3-6.74-7.25-6.74a6.33,6.33,0,0,0-5,2l-2.14,2a5.1,5.1,0,0,0-1.33-1.95c-1.54-1.53-4.09-2.14-7-2.14-2.65,0-5.42.61-6.83,2.14a5.91,5.91,0,0,0-1.95,4.6v3.27a6.26,6.26,0,0,0,1.95,4.7,7.27,7.27,0,0,0,5.2,2.05Zm-15-5.11a4.22,4.22,0,0,0-1.84-3.89c-1.53-1-4-1-6.23-1-1.33,0-3.38.2-3.38-1.73,0-1.33,2-1.73,4.09-1.73,1.85.1,4,0,6,.1V11.66a52.1,52.1,0,0,0-6-.31c-2.75,0-5.72.1-7.15,1.63a5.09,5.09,0,0,0-1.33,3.68,4.59,4.59,0,0,0,1.53,3.68c1.43,1,3.67,1,5.72,1,1.33,0,4-.41,4,1.63s-2.35,1.85-3.67,1.85c-2.24-.1-5.11-.2-6.74-.2v3.17a40.64,40.64,0,0,0,6.74.31,14.82,14.82,0,0,0,5.82-.82A4.45,4.45,0,0,0,107.57,23Zm1.64-11.56V28h4.39V11.45Zm4.38-2.76V4.91h-4.4V8.69ZM171.23,0c-3.27,5.31-7.77,12.37-11,17.7-.19.41-.41.51-.7.51s-.42-.1-.71-.51c-2.56-4.19-5.42-8.6-8-12.79h5.11l3.58,5.63L166,0Zm-42.6,19.74-3,3.27a3.73,3.73,0,0,1-3.06,1.63c-1.95,0-2.75-1.85-2.75-3.27V18.11a3.13,3.13,0,0,1,1-2.36,4.46,4.46,0,0,1,3.37-1,5.08,5.08,0,0,1,3.48,1,3.42,3.42,0,0,1,.92,2.36v1.63Z"/></svg>