<svg xmlns="http://www.w3.org/2000/svg" width="172" height="35" viewBox="0 0 172 35" fill="none"><path fill-rule="evenodd" clip-rule="evenodd" d="M81.2209 13.4919C82.5547 14.7133 83.1648 16.2471 83.1648 18.0933V28.0063H78.7661V25.1375L77.8438 26.1601C76.4106 27.4951 74.6795 28.1057 72.7355 28.1057C70.7916 28.1057 68.8476 27.5945 67.528 26.1601C66.1942 24.8251 65.584 23.1919 65.584 21.3598V18.0933C65.584 16.2471 66.1942 14.7133 67.528 13.4919C68.9611 11.9581 71.6146 11.3474 74.3673 11.3474C77.1201 11.3474 79.7877 11.9581 81.2067 13.4919H81.2209ZM33.913 28.1199C35.8569 28.1199 37.6874 27.5093 39.0212 26.1743L40.0429 25.1517V28.0205C40.0429 28.9437 39.6314 29.7532 39.0212 30.3781C38.4111 31.003 37.0772 31.5 35.5448 31.5H32.2812V34.6671C33.4022 34.7665 34.4238 34.7665 35.5448 34.7665C38.1982 34.7665 40.9652 34.1558 42.4977 32.7214C43.8315 31.3864 44.4416 29.8526 44.4416 28.0205V18.1075C44.4416 16.2613 43.7321 14.7275 42.4977 13.5061C40.9652 11.9723 38.4111 11.3616 35.5448 11.3616C32.8913 11.3616 30.2379 11.9723 28.7054 13.5061C27.4851 14.7275 26.7615 16.2613 26.7615 18.1075V21.374C26.7615 23.2203 27.4709 24.7541 28.7054 26.0749C30.1386 27.4098 31.8697 28.1199 33.913 28.1199ZM40.0429 19.7408L36.9779 23.0072C36.1549 24.0298 35.2468 24.6405 33.913 24.6405C31.969 24.6405 31.1602 22.7942 31.1602 21.374V18.1075C31.1602 17.1844 31.4724 16.4743 32.1819 15.75C32.792 15.1393 34.1258 14.628 35.559 14.7275C36.9921 14.628 38.4253 15.1393 39.0354 15.75C39.6456 16.4601 40.057 17.1844 40.057 18.1075V19.7408H40.0429ZM46.5842 11.4468V28.0063H50.8695V11.4468H46.5842ZM50.8837 8.6916V4.91387H46.5984V8.6916H50.8837ZM20.3336 11.4468V28.0063H24.6188V11.4468H20.3336ZM24.6188 8.6916V4.91387H20.3336V8.6916H24.6188ZM85.4068 4.91387V28.0205H89.8055V4.91387H85.4068ZM60.9866 24.8535C59.0426 24.8535 57.8223 23.6321 57.8223 21.587V14.8411H64.463V11.461H57.8223V4.91387H53.4236V21.374C53.4236 23.2203 54.0337 24.9529 55.3676 26.1743C56.8007 27.7081 58.6311 28.1199 60.4758 28.1199C61.8096 28.1199 63.2286 28.0205 64.463 27.7081V24.7399C63.2427 24.7399 62.1076 24.8393 60.9866 24.8393V24.8535ZM16.6585 4.91387H13.2814V11.461H6.6407C4.90958 11.461 3.26359 12.1711 1.94397 13.5061C0.0993268 15.3523 0 17.3974 0 19.7408C0 24.3422 1.94397 28.0205 7.15152 28.0205C9.90429 28.0205 11.4368 26.998 13.2814 25.1517V28.0205H17.6802V4.91387H16.6585ZM7.15152 24.6405C5.30688 24.6405 4.49808 23.1066 4.49808 21.374V18.1075C4.49808 17.1844 4.81025 16.4743 5.4204 15.75C6.03055 15.1393 6.85354 14.8269 7.77586 14.8269H13.2956V19.7408L10.33 23.2203C9.50699 24.2428 8.48534 24.6547 7.16571 24.6547L7.15152 24.6405ZM78.7661 18.0933C78.7661 17.1702 78.4539 16.4601 77.8438 15.7358C77.1343 15.1251 75.8005 14.6138 74.3673 14.6138C72.9342 14.6138 71.6146 15.1251 70.8909 15.7358C70.2807 16.4459 69.9686 17.1702 69.9686 18.0933V21.3598C69.9686 23.2061 70.9902 24.6263 72.7214 24.6263C73.6437 24.6263 74.7646 24.2144 75.5876 23.2913L78.7519 19.7124V18.0791L78.7661 18.0933Z" fill="#009FE3"></path><path d="M122.597 28.12C124.442 28.12 126.372 27.5093 127.706 26.1743L128.628 25.1518V28.0206C128.628 28.9437 128.316 29.7532 127.706 30.3781C126.996 30.9888 125.762 31.5 124.229 31.5H120.966V34.6671C121.987 34.7665 123.108 34.7665 124.229 34.7665C126.883 34.7665 129.649 34.1558 131.182 32.7214C132.402 31.3864 133.126 29.8526 133.126 28.0206V20.2521L136.9 16.2613C137.823 15.2388 138.631 14.8269 139.653 14.8269C141.498 14.8269 142.406 16.6732 142.406 18.0934V28.0064H146.904V18.0934C146.904 14.202 143.938 11.3474 139.653 11.3474C137.298 11.3474 135.978 12.0575 134.644 13.3925L132.502 15.4376C132.189 14.7275 131.792 14.0032 131.168 13.4919C129.635 11.9581 127.081 11.3474 124.215 11.3474C121.561 11.3474 118.795 11.9581 117.376 13.4919C116.042 14.7133 115.432 16.2471 115.432 18.0934V21.3598C115.432 23.2061 116.042 24.7399 117.376 26.0607C118.709 27.3815 120.54 28.1058 122.583 28.1058L122.597 28.12ZM107.585 23.0072C107.585 21.0616 106.875 19.8402 105.74 19.1159C104.208 18.0934 101.753 18.0934 99.5109 18.0934C98.1771 18.0934 96.1338 18.2922 96.1338 16.3607C96.1338 15.0257 98.0778 14.6281 100.22 14.6281C102.065 14.7275 104.208 14.6281 106.251 14.7275V11.6598C104.619 11.461 102.477 11.3474 100.22 11.3474C97.4676 11.3474 94.502 11.4468 93.0689 12.9806C92.1466 13.9038 91.7351 15.2245 91.7351 16.659C91.7351 18.3916 92.3452 19.5278 93.2675 20.3373C94.7007 21.3598 96.9426 21.3598 98.9859 21.3598C100.32 21.3598 102.973 20.948 102.973 22.993C102.973 25.0381 100.618 24.8393 99.2981 24.8393C97.0562 24.7399 94.1899 24.6405 92.5581 24.6405V27.8075C93.8919 28.0064 96.5453 28.2194 99.2981 28.12C101.441 28.12 103.484 28.0206 105.116 27.2963C106.648 26.5862 107.571 25.0523 107.571 23.0072H107.585ZM109.217 11.4468V28.0064H113.615V11.4468H109.217ZM113.601 8.69163V4.91389H109.202V8.69163H113.601ZM171.225 0C167.961 5.31155 163.463 12.3699 160.185 17.6957C159.987 18.1076 159.774 18.207 159.476 18.207C159.277 18.207 159.064 18.1076 158.766 17.6957C156.212 13.5061 153.346 9.10349 150.792 4.91389H155.9L159.476 10.5379L166.017 0L171.225 0ZM128.628 19.7408L125.662 23.0072C124.839 24.0298 123.931 24.6405 122.597 24.6405C120.653 24.6405 119.845 22.7942 119.845 21.374V18.1076C119.845 17.1844 120.157 16.4743 120.866 15.75C121.476 15.1393 122.711 14.6281 124.243 14.7275C125.676 14.6281 126.996 15.1393 127.72 15.75C128.33 16.4601 128.642 17.1844 128.642 18.1076V19.7408H128.628Z" fill="white"></path></svg>